PathFileType	4	(X/Y/Z)	C:/Users/beibeiliu/ov580/test_trc\sequence.26_training_dense_right.trc
DataRate	CameraRate	NumFrames	NumMarkers	Units	OrigDataRate	OrigDataStartFrame	OrigNumFrames
120	120	8	19	mm	120	251	400
Frame#	Time	ThumbCMC			ThumbMCP			ThumbIP			ThumbTip			IndexMCP			IndexPIP			IndexTip			MiddleMCP			MiddlePIP			MiddleTip			RingMCP			RingPIP			RingTip			PinkyMCP			PinkyPIP			PinkyTip			BackHand1			BackHand2			BackHand3	
		X0	Y0	Z0	X1	Y1	Z1	X2	Y2	Z2	X3	Y3	Z3	X4	Y4	Z4	X5	Y5	Z5	X6	Y6	Z6	X7	Y7	Z7	X8	Y8	Z8	X9	Y9	Z9	X10	Y10	Z10	X11	Y11	Z11	X12	Y12	Z12	X13	Y13	Z13	X14	Y14	Z14	X15	Y15	Z15	X16	Y16	Z16	X17	Y17	Z17	X18	Y18	Z18	
250	2.08333	258.19	-38.27	37.1649	255.955	-19.7051	21.639	259.603	-9.22249	1.61163	263.076	-0.48033	-9.83237	226.49	-35.3992	-16.8123	212.125	-18.997	-4.7288	227.319	-25.4235	20.5113	208.3	-45.385	-8.12618	199.426	-21.4678	7.6699	220.084	-32.5248	30.4422	194.075	-56.0457	1.05315	191.253	-31.6117	11.6503	212.678	-42.7495	30.9314	185.385	-77.6918	12.9618	169.992	-76.6906	0.79273	156.646	-74.9837	-11.805	226.712	-81.2431	33.1354	235.54	-80.1841	55.3821	250.953	-68.8017	31.6527	
251	2.09167	259.454	-35.9884	39.1273	254.659	-20.0399	22.9932	260.358	-8.91662	5.39203	270.589	1.04852	-8.77635	232.534	-34.9439	-16.2137	219.653	-10.8517	-4.69816	229.954	-26.6715	21.049	212.72	-39.6494	-11.731	203.969	-15.2841	5.23805	222.164	-25.9993	28.1689	196.731	-47.5618	-4.52116	192.395	-24.8994	8.76841	212.827	-37.2606	26.7072	182.784	-72.0705	9.39951	170.599	-67.7849	-4.99562	158.157	-68.5307	-19.3394	223.209	-78.0835	28.1626	227.546	-78.3824	54.3998	247.666	-66.532	32.1781	
252	2.1	257.369	-33.6712	40.4341	258.88	-17.3693	20.2692	264.628	-6.7415	4.51229	270.565	1.81435	-5.74591	230.017	-33.7489	-17.0933	219.902	-8.5704	-5.57584	232.906	-21.3718	20.4794	212.711	-34.5248	-12.8076	203.766	-10.9994	1.33413	223.798	-25.7881	26.5222	197.786	-42.106	-6.75993	194.707	-18.6367	4.99462	212.742	-32.1767	25.403	185.088	-64.0384	3.19726	169.707	-60.9518	-6.54002	156.945	-59.6579	-20.1746	217.95	-75.1278	29.1878	223.382	-75.6757	55.0299	243.959	-65.7767	34.0044	
253	2.10833	256.886	-32.3925	38.6925	257.35	-15.7846	24.6451	269.115	-4.20405	3.09915	278.835	4.17132	-4.63162	235.274	-26.8701	-18.4481	224.398	-2.64308	-7.59954	232.772	-12.918	18.2741	216.279	-28.6401	-14.2042	207.797	-4.36286	3.15784	224.995	-19.8024	26.4798	196.448	-35.5689	-9.59786	198.087	-13.3742	1.11063	213.461	-25.8634	23.0325	181.454	-56.7018	3.24574	172.293	-52.9846	-9.60128	158.643	-51.4338	-24.1292	214.632	-67.8309	26.3922	224.037	-71.3277	52.7324	241.932	-63.2259	34.3158	
254	2.11667	253.631	-30.2893	42.3265	257.118	-12.7978	23.2317	267.008	-3.62112	5.6849	276.647	4.76093	-7.75263	232.493	-20.7862	-19.5218	224.317	0.104066	-8.44937	235.906	-13.3991	19.9241	217.364	-23.8199	-14.9208	211.419	1.83595	1.25331	224.391	-17.0426	26.2308	198.422	-28.516	-11.3695	201.468	-5.32748	1.4092	213.777	-21.965	22.4965	178.804	-50.3501	0.789211	171.923	-43.1642	-17.717	161.516	-39.2535	-28.8554	211.091	-64.6631	27.6038	220.79	-66.4269	49.0799	241.583	-58.3317	34.6215	
255	2.125	254.688	-27.0839	43.8943	260.255	-10.038	21.8272	271.844	0.785932	6.62253	283.325	8.167	-3.8527	236.697	-18.9611	-17.7183	228.463	7.04976	-6.54841	234.981	-10.1797	20.6142	216.71	-16.4197	-15.7624	212.515	7.04693	0.800781	222.391	-8.25546	25.4241	199.872	-23.8411	-10.517	202.883	1.10095	4.23273	213.56	-14.5218	21.6396	178.191	-42.7081	-1.08322	170.461	-35.2011	-16.7025	162.836	-31.6586	-30.7234	209.889	-57.5225	22.9038	216.476	-62.0617	51.9434	240.205	-53.1777	32.1336	
256	2.13333	252.779	-25.085	39.3119	259.435	-6.48484	22.9565	270.839	2.68321	6.6603	280.461	9.59842	-1.57396	235.337	-12.1523	-18.0168	230.727	12.0968	-7.30063	234.213	-4.18664	19.6586	215.805	-13.8183	-15.3252	213.262	12.3043	1.22096	225.579	-5.52873	26.4393	203.51	-12.9604	-13.9801	201.664	6.17327	2.477	214.129	-8.73473	22.6605	177.882	-34.4407	-5.80897	172.441	-26.3496	-20.6367	163.376	-24.7234	-30.8891	211.593	-52.6354	22.6552	215.451	-58.0532	47.5035	235.564	-52.5917	33.8781	
257	2.14167	255.617	-21.2972	43.5174	258.853	-4.23005	24.9636	272.99	6.25724	11.165	284.338	11.8449	-0.817749	240.675	-6.32055	-17.9699	230.154	14.4301	-3.12661	235.22	-1.29559	19.1966	221.782	-6.27549	-17.0423	218.156	17.1932	-0.28243	225.222	-2.34926	26.2158	205.003	-9.30972	-14.3148	206.294	11.6744	2.22831	216.072	-3.83005	21.8456	180.48	-27.8785	-5.45658	173.844	-20.7542	-18.3831	162.45	-16.2633	-35.4439	208.81	-47.0116	19.6743	212.41	-53.812	46.6716	235.678	-47.2458	33.7523	
